<?xml version="1.0" encoding="utf-8"?>
<?xml-stylesheet type="text/xsl" href="rss1.xsl"?>
<rss version="2.0" xmlns:atom="http://www.w3.org/2005/Atom" xmlns:content="http://purl.org/rss/1.0/modules/content/" xmlns:dc="http://purl.org/dc/elements/1.1/" xmlns:media="http://search.yahoo.com/mrss/">
<channel>
 <title>Getty</title>
 <link>http://www.gettyimg.com/</link>
 <atom:link href="http://www.gettyimg.com/" rel="self" type="application/rss+xml" />

 
                <item>
                <title><![CDATA[【Requests】[REQ AUD] - Ice Spice - Munch FLAC 24bit [Qobuz]]]></title>
                <link><![CDATA[https://sharemania.us/threads/ice-spice-munch-flac-24bit-qobuz.251113/]]></link>
                <description><![CDATA[<article>
<blockquote class="messageText SelectQuoteContainer ugc baseHtml">
<img src="https://i.imgur.com/aXj0qmP.jpg" class="bbCodeImage LbImage" alt="[​IMG]" data-url="https://i.imgur.com/aXj0qmP.jpg" style=""> <br>
<br>
<div style="text-align: center">1.Munch (Feelin’ U)​</div>
<div class="messageTextEndMarker">&nbsp;</div>
</blockquote>
</article>]]></description>
                <author><![CDATA[Jackrousey]]></author>
                </item>

                
                <item>
                <title><![CDATA[【Singles (lossless)】Shakira - Je L'aime á Mourir (CD-Single) [Re-upload]]]></title>
                <link><![CDATA[https://sharemania.us/threads/shakira-je-laime-%C3%A1-mourir-cd-single-re-upload.251115/]]></link>
                <description><![CDATA[<article>
<blockquote class="messageText SelectQuoteContainer ugc baseHtml">
<span style="font-size: 22px"><b>Shakira - Je L'aime á Mourir (CD-Single)</b></span><br>
<br>
<img src="https://i.imgur.com/g6ziMq7.jpg" class="bbCodeImage LbImage" alt="[​IMG]" data-url="https://i.imgur.com/g6ziMq7.jpg" style=""><br>
<br>
Originally uploaded by Caleb (<b><span style="font-size: 15px"><a href="https://sharemania.us/members/calebj.51934/" class="internalLink">calebj</a>). <br>
Re-upload requested by <a href="https://sharemania.us/members/brungor.10068/" class="internalLink">Brungor</a></span></b><br>
<br>
<br>
<span style="font-size: 15px"><b>Link on original post is dead, all credits of this rip go to Caleb, thanks a lot.</b><br>
<br>
<b>
<div class="bbCodeBlock bbCodeVfcHH HiddenContent">
<div class="attribution type">Hidden Content:</div>
<blockquote>You must reply before you can see the hidden data contained here.</blockquote>
</div></b></span>
<div class="messageTextEndMarker">&nbsp;</div>
</blockquote>
</article>]]></description>
                <author><![CDATA[repj13]]></author>
                </item>

                
                <item>
                <title><![CDATA[【SD】DVD - Eazy-E - We Want Eazy [VOB]]]></title>
                <link><![CDATA[https://sharemania.us/threads/eazy-e-we-want-eazy-vob.251114/]]></link>
                <description><![CDATA[<article>
<blockquote class="messageText SelectQuoteContainer ugc baseHtml">
<img src="https://i.imgur.com/oWqQtjK.jpeg" class="bbCodeImage LbImage" alt="[​IMG]" data-url="https://i.imgur.com/oWqQtjK.jpeg" style=""> <img src="https://i.imgur.com/S98fwBK.png" class="bbCodeImage LbImage" alt="[​IMG]" data-url="https://i.imgur.com/S98fwBK.png" style=""> <img src="https://i.imgur.com/LIYGfaz.png" class="bbCodeImage LbImage" alt="[​IMG]" data-url="https://i.imgur.com/LIYGfaz.png" style=""> <img src="https://i.imgur.com/tOFe97l.png" class="bbCodeImage LbImage" alt="[​IMG]" data-url="https://i.imgur.com/tOFe97l.png" style=""> <br>
<div class="ToggleTriggerAnchor bbCodeSpoilerContainer">
<button type="button" class="button bbCodeSpoilerButton ToggleTrigger Tooltip JsOnly" data-target="> .SpoilerTarget"><span>Spoiler: <span class="SpoilerTitle">Mediainfo</span></span></button>
<div class="SpoilerTarget bbCodeSpoilerText">
<div class="bbCodeBlock bbCodeCode">
<div class="type">Code:</div>
<pre>General
Complete name                            : G:\Eazy-E\Eazy E - We Want Eazy.vob
Format                                   : MPEG-PS
File size                                : 300 MiB
Duration                                 : 5 min 44 s
Overall bit rate mode                    : Variable
Overall bit rate                         : 7 312 kb/s
Frame rate                               : 29.970 FPS
Video
ID                                       : 224 (0xE0)
Format                                   : MPEG Video
Format version                           : Version 2
Format profile                           : Main@Main
Format settings                          : CustomMatrix / BVOP
Format settings, BVOP                    : Yes
Format settings, Matrix                  : Custom
Format settings, GOP                     : M=2, N=14
Format settings, picture structure       : Frame
Duration                                 : 5 min 44 s
Bit rate mode                            : Variable
Bit rate                                 : 5 183 kb/s
Maximum bit rate                         : 7 500 kb/s
Width                                    : 720 pixels
Height                                   : 480 pixels
Display aspect ratio                     : 4:3
Frame rate                               : 29.970 (30000/1001) FPS
Standard                                 : NTSC
Color space                              : YUV
Chroma subsampling                       : 4:2:0
Bit depth                                : 8 bits
Scan type                                : Interlaced
Scan order                               : Top Field First
Compression mode                         : Lossy
Bits/(Pixel*Frame)                       : 0.500
Time code of first frame                 : 01:25:36:00
Time code source                         : Group of pictures header
GOP, Open/Closed                         : Closed
Stream size                              : 213 MiB (71%)
Audio #1
ID                                       : 189 (0xBD)-129 (0x81)
Format                                   : AC-3
Format/Info                              : Audio Coding 3
Commercial name                          : Dolby Digital
Muxing mode                              : DVD-Video
Duration                                 : 5 min 44 s
Bit rate mode                            : Constant
Bit rate                                 : 448 kb/s
Channel(s)                               : 6 channels
Channel layout                           : L R C LFE Ls Rs
Sampling rate                            : 48.0 kHz
Frame rate                               : 31.250 FPS (1536 SPF)
Compression mode                         : Lossy
Stream size                              : 18.4 MiB (6%)
Service kind                             : Complete Main
Dialog Normalization                     : -31 dB
compr                                    : -0.28 dB
cmixlev                                  : -3.0 dB
surmixlev                                : -3 dB
dialnorm_Average                         : -31 dB
dialnorm_Minimum                         : -31 dB
dialnorm_Maximum                         : -31 dB
Audio #2
ID                                       : 189 (0xBD)-160 (0xA0)
Format                                   : PCM
Format settings                          : Big / Signed
Muxing mode                              : DVD-Video
Duration                                 : 5 min 44 s
Bit rate mode                            : Constant
Bit rate                                 : 1 536 kb/s
Channel(s)                               : 2 channels
Sampling rate                            : 48.0 kHz
Bit depth                                : 16 bits
Stream size                              : 63.0 MiB (21%)
Menu
Format                                   : DVD-Video</pre>
</div></div>
</div>
<div class="bbCodeBlock bbCodeVfcHH HiddenContent">
<div class="attribution type">Hidden Content:</div>
<blockquote>You must either reply or click 'Like' to see the hidden information contained here.</blockquote>
</div>
<div class="messageTextEndMarker">&nbsp;</div>
</blockquote>
</article>]]></description>
                <author><![CDATA[Aituar]]></author>
                </item>

                </channel></rss>